<svg xmlns="http://www.w3.org/2000/svg" width="220" height="220" viewBox="0 0 220 220">
    <path fill="#f05252" class="st0" d="M92 4.6c-2.9 0-6.6.6-7.8 1.1-.1.1-.4.3.4.4 1.3.2 7.3.5 10.5-.2.9-.2 1.1-.4 1.1-.6-.3-.7-3.5-.7-4.2-.7zM83 9.3c-1.5.9 1.3 1.8 2.5 2.2 5.4 1.4 9.9.2 9-1.2l-.1-.2c-.7-.8-2.4-1.2-3.4-1.3-.1 0-.3 0-.6-.1-1.6-.2-3.2-.2-4.8 0-1.3.1-2 .2-2.6.6zM130.1 17.8c3.3 0 4.4-1.5 2.5-3.4-.6-.5-1.4-1.1-2.4-1.6-2.9-1.4-8.2-2.6-10.5-1.1-2.2 2.2 5.3 6.1 10.4 6.1zM52.6 16.8c-1.3.9-3.6 4.3-2.4 4.5.7.1 2-1.2 2.5-3.1.1-.2.4-1.6-.1-1.4zM118.1 6c-3.1-.8-7.5-1.1-9.2-.3-1.4 1.1 3.4 2.8 7.3 3.3 2.5.3 4.3.3 5.4-.3 1.6-.9-1.2-2.1-3.5-2.7zM83.9 7.2c-.3-.2-1.3-.4-3.4-.2-2.9.2-6.6 1-7.3 1.5v.1c.1.1.1.1.6.2h.1c.9 0 4.5 0 7.4-.3 3.2-.6 2.8-1.2 2.6-1.3zM59.2 46.1c1.9.4 3.5-.4 4.1-.8 4.1-2.6 3.9-6.3 3.2-8.1-.9-2.2-4-4.6-7.8-2.6-4.9 3.3-3.9 10.5.5 11.5zM57.6 14.3c-.8.5.5 1.5 1.7 1.7 1.9.4 3.5-.7 2.9-1.5-.1-.2-.4-.4-1-.5-1.1-.2-2.8-.1-3.6.3zM57.8 13.4c.1 0 5-.9 5-.9 1-.2 1.4-.4 1.5-.5.1-.1.3-.2 0-.3-.3-.1-1-.1-2.3.2-1.9.5-3.9 1.3-4.2 1.5zM78.6 5.6c-3.2.7-6.5 1.8-6.8 2 .1 0 10.3-2 11-2.5v-.1c-.7-.1-2.6.2-4.2.6zM131.5 5.9c-3.1-.9-7.3-1.5-8.8-.9-1.4 1 5.3 3.3 9.4 3.8 2.2.3 2.9 0 3.2-.2 1.1-.8-1.7-2-3.8-2.7zM131.9 101c2.6.6 7.4-.1 9.6-4.9 1.1-2.4 1.1-5.2.1-7.7-3.4-8.4-14.7-9-17.7-.9-.1.3-.1.3-1 4.2v-.1c1.7 4.3 2.9 7.9 9 9.4zM141.9 108.6c-1.6-3.8-6.8-8-13.1-4.8-8 5.3-4.7 16.5 3.2 17.8 7.1 1.2 12.7-6.1 9.9-13zM150.3 80.8c2.8.7 4.6-.2 5.5-.7 4.7-3.1 3.4-8.3 2-10.9-2.3-4.1-7.4-7.1-12.3-4.7-6.5 4.3-2.4 14.5 4.8 16.3zM123 91.6v-.2.1.1zM176.6 91.5c-1.3-3.6-5.3-7.6-10.1-5.4-6.3 4.2-2.8 15 3.5 16.3 5.2 1.3 8.8-4.8 6.6-10.9zM90.9 1.7c2.2-.4 4.5-.7 6.9-1-2.4.3-4.7.6-6.9 1zM174.5 120.6c3-3.7 2-7.9 1.7-9.1-1-3.2-4.3-7.2-9.2-4.7-6.4 4.2-4.1 14.3 2.1 15.7.9.2 1.5.1 2.1.1 1.2-.2 2.3-.8 3.2-1.8 0-.1.1-.2.1-.2zM170.8 82.6c1.9 0 3.3-.8 4.4-2.4 1.9-3.5.4-7.2-.3-8.6-.5-1-3.2-5.7-8.2-5.8-1.5.1-2.2.5-3 1-5.7 5.1.4 15.7 7.1 15.8zM160.1 89.3c-1.7-3.9-6.5-8.1-12.1-5.3-7.1 4.7-3.7 15.5 3.5 17.3 6.6 1.7 11.5-5.1 8.6-12zM22.3 47.8s-.1 0-.1.1l-.2.1c-3.1 2.8-6.9 11.7-5.5 11.5.6-.1 2.1-2.1 4-6.3.9-1.9 2.4-5.5 1.8-5.4zM65.1 166.3c-1.9-2.7-6.4-6.2-10.6-4.1-1 .7-1.4 1.2-1.8 2.4l-.1.4c-.7 4.5 3.8 9.7 9 10.4 5.5.4 6.5-4.7 3.5-9.1zM33.5 31c.1-.1.2-.1 1.4-1.3.6-.6 1.5-1.4 2.5-2.3 1.8-1.6 3.1-2.7 3.9-3.4.4-.3.4-.3.4-.4-2 1.5-7.6 6.5-8.2 7.4zM89.8 1.9l1-.2c-.3.1-.6.1-1 .2zM72.3 186.8c0-.3 0-.8-.2-1-.1-.5-.6-1.8-2.2-3.5-.4-.4-.8-.7-.9-.9-1.1-.9-2.3-1.6-3.6-2.1-2.8-1-4.2-.5-5.1-.1-2 1.4-1.7 4 .7 6.8 4.2 4.5 11.3 5 11.3.8zM77.8 176.2c4.1.6 6.4-1.4 7-3.8 0-.1 0-.2.1-.3.1-.8.3-2.7-1.3-5.1-2.3-3.4-7.3-5.8-11.5-3.8-3.7 2.5-2.1 6.3-1.9 6.8 2.3 5.4 7.6 6.2 7.6 6.2zM32.3 33.3c1.2-1.4 2.6-2.7 3.7-4.2-1.4 1-7.6 7.5-7.9 8.7.3 0 .9-.7 4.2-4.5zM108.2 158.7c6.7 3.8 13.5-.9 13.1-7 0-.2 0-.4-.1-.6-.1-.5-.2-1.5-.9-2.7-1.6-2.8-6.2-6.3-12.1-3.3-5.3 3.5-5.2 10.2 0 13.6zM25.3 44.3c.2.1.9-.1 4.4-5.5 2.8-4.2 2.7-4.5 2.7-4.6h-.1c-2.2 1.5-7.9 9.7-7 10.1zM24.7 58.4c-3.5 4.6-4.6 12.2-1.7 12.7 2.1.1 4.6-4 5.2-8.6.4-2.7.1-6.4-2.2-5.2-.4.2-.6.4-1 .8l-.3.3zM22.6 53.1c-3.1 2.1-6.8 12.2-4.7 12.8.2.1.5 0 .7-.1 2.2-1.5 3.7-6.3 4-7.2.9-2.6 1.5-6.3 0-5.5zM15 69.3c-3.5 2.5-5.3 13.3-3.2 14 1.4.4 3.4-3.4 4.3-8 .5-2.9.7-6.8-1.1-6zM132.9 3.3c-.1-.3-2.4-.9-4.6-1.3-3-.6-6.3-.9-6.9-.7v.1c.6.5 11 2.5 11.5 1.9zM143.1 5.2c-3.4-1.1-6.8-2-10.3-2.7.3.1 10.3 2.7 10.3 2.7zM109 1.8c-.1 0-.1.1-.1.1.7 1 12.5 2 12.4 1 0-.3-1.6-.9-4.5-1.2-3.1-.3-6.8-.3-7.8.1zM94.1 201.4c.4-.1.6-.2.9-.4 2.7-1.8-1.1-4.8-1.3-4.9-2.5-1.9-6.8-3.1-9.4-1.9-.3.2-.5.3-.7.6l-.2.3c-1.5 3.2 5.7 7.4 10.7 6.3zM103.2 1.3c1.6-.1 2.3-.2 2.3-.3 0-.1-.7-.1-1.3-.2h-.2c-.5 0-1.5 0-3.1.1-3.3.2-6.5.7-6.7.9.5.1 8.9-.5 9-.5zM116.2.4c-.2-.1-2.8-.3-4.6-.3-3.1-.1-5.6.1-6 .1 0 .1 10.1.3 10.6.2zM48.8 18.6c-2.6 1.7-7.6 5.7-8.7 6.9.1 0 .1 0 1.5-1.2.7-.6 1.6-1.3 2.6-2.2 1.5-1.2 1.5-1.2 4.6-3.5zM86.7 206.6c-2.1-1.1-6-2.3-8-1.5-1.9 1.3 2.7 4.1 7.1 4.8 2.6.4 4.7.1 3.7-1.4-.5-.5-1.5-1.2-2.8-1.9zM121.3 213.2c2.7.5 6.1.2 6.7-.5.2-.6-1.6-1.1-2.4-1.3-1.3-.3-4.1-.6-6.1-.1-.2.1-.4.1-.5.2-1.1.8.8 1.5 2.3 1.7zM49.8 18.2c-1.9 1.2-6.6 5.5-6.7 6.4.3 0 .7-.4 3.7-3.5 1-1.1 2.1-2 3-2.9zM148.7 104.8c-7.2 4.7-4.6 15.1 2.3 16.7 6.3 1.5 11.4-5.1 9.1-11.7-1.4-3.8-5.8-7.8-11.4-5zM110.3 141.7c3.4.9 6-.4 7-1 5.6-3.6 5.1-9.3 4-11.7-1.6-3.7-6.9-7.5-13.5-4.1-7.7 4.9-5 14.9 2.5 16.8zM49.5 34.1c-4.1 2.7-4.9 10-1.2 11 3 .8 7-3.5 6.2-7.9-.4-2.2-2.2-4.5-5-3.1zM41.8 42.9c2-.8 3.8-3.9 4.1-6.8.1-.9 0-1.5-.1-1.8-.4-1.7-1.2-2.3-2.4-1.7-1.3.8-2.6 2.7-3.5 5.1-1.5 4-.2 6.1 1.9 5.2zM30.5 43c0-.1.1-.2.1-.2.3-.7 1.1-2.6 1.2-3.7 0-.3.1-.8-.5-.5-1 .6-3.4 3.7-4.9 6.8-1.6 3.4-1.3 4.6-.5 4.3.1 0 .2-.1.2-.1 1.1-.7 1.9-2.1 1.9-2.1.8-1.2 1.6-2.7 2.3-4.3.2 0 .2-.1.2-.2zM56.2 28.5c0-.1 0-.2.1-.3.1-.4.2-1.2 0-2.1-.4-1.4-1.8-3-3.8-1.9-2.2 1.4-3.5 5.4-1.9 7.3 1.8 1.7 4.8-.3 5.6-3zM35.2 58.1c2.7.7 6.1-3.9 6.2-8.6.1-2.3-.8-5.6-3.6-4.2-4.2 2.7-6.1 11.9-2.6 12.8zM56.8 47.9c-6.1 4-5.2 12.8.1 14.2 5.3 1.4 10.7-5.1 8.8-10.6-1-2.9-4.4-5.9-8.9-3.6zM43.5 22.9c-1.7 1.1-7.9 7.1-7.8 8h.1c.6-.4 1.1-1 4.1-4.2 1.2-1.3 2.5-2.4 3.6-3.8zM34.5 35.8c.4-.2 1.4-1 4-5 .9-1.4 2.3-3.7 2.1-3.9-.1 0-.1 0-.2.1-.4.3-.9.7-1.7 1.6l-.2.2c-2.2 2.4-3.9 4.9-4.5 6.4 0 .3-.2 1 .5.6zM30.5 75.3c2.9.7 6.7-3.9 6.6-9.6 0-3.1-1.5-6.7-4.7-5.1-4.8 3.2-6.1 13.6-1.9 14.7zM28.9 54.5c1.5.5 4.3-2.9 5.4-7.5.4-1.6.9-5.6-1.2-4.6-3.5 2.4-6.7 11.4-4.2 12.1zM52.1 51.1c-.4-2.7-2.6-5.8-6.2-4-5 3.2-5.7 12.3-1.1 13.6 3.8 1.1 8-4.5 7.3-9.6zM47.7 20.9c-.1 0-.2.1-.2.1-2.5 1.9-5.7 6.7-4.6 7 .4.1 1.8-.8 3.7-4.2.2-.5 1.5-3 1.1-2.9zM41.1 78.3c4.1 1.1 9-4.6 7.9-10.9-.5-3-3-6.8-7.2-4.7-5.6 3.7-6 14.2-.7 15.6zM48.4 23c-2.3 1.5-4.7 7-2.8 7.5 1.3.4 3.7-2.1 4.1-5.1 0 0 .4-3.3-1.3-2.4zM72.2 8c-.2-.2-2.4.4-3.9.9-3 .9-5.6 2.1-6 2.3l8.8-2.7 1.1-.5zM189.9 171.3c-.1 0-.3.1-.4.2-2.5 1.7-4.1 7.8-3 8 .3.1.8-.4.8-.4 1.5-1.5 2.5-4 2.7-4.2.6-1.9.9-3.7-.1-3.6zM187.8 183.2c.3.1 1.9-1.8 3.1-3.8 1.2-2.1 1.5-3.3.9-3.1 0 0-.1 0-.1.1-1.5 1-4.5 6.7-3.9 6.8zM49.4 19.3c.2 0 .2 0 2.6-2.4.9-.9 1.4-1.3 2.1-1.8-2.8 1.8-4.7 3.8-4.7 4.2zM131 214.6c-.1.1-.4.3.4.4 1.7.3 6.2-.3 7.3-.8l.1-.1c-.1-.1-.2-.2-2.5-.1-.5-.1-4.2 0-5.3.6zM195.9 113.6c-4.5 3.1-3.3 13 .5 13.6 2.5.4 4.7-3.8 4.3-8.3-.2-2.9-1.7-6.8-4.8-5.3zM202.3 104.8l.1-.3c.2-.8.6-2.6.1-5.1-.7-3.6-3.1-6.8-5.8-5.7-3.3 2.3-2.8 10.4.8 13.6 1 .8 1.9.9 2.9.4.3-.2 1.3-.8 1.9-2.9zM205.2 131.2c1.6.2 3.2-3.3 3.3-7.2.1-2.8-.7-6.2-2.8-5.3-3.5 2.5-3.1 12.2-.5 12.5zM141 129.1c-1.6-4.3-6.7-7.2-12.4-4.3-7.4 4.8-5.2 14.4 1.7 16.2 7 1.8 13.2-5.1 10.7-11.9zM33 83.5c-.2-3.1-2-7.4-5.5-5.7-5.7 3.7-4.9 15.4-.4 16 .9.1 1.4-.2 2-.5 3.5-2.3 4.1-7.2 3.9-9.8zM30.1 102.6c-.5-3.2-2.7-7.6-6.3-6.1l-.2.1c-5.6 3.8-3.6 15.9 1.2 16.5 1.1.1 1.9-.4 2.2-.5 3.4-2.5 3.5-7.4 3.1-10zM100.6 2.7c-2.2.1-3.8.4-4.4.6-.1.1-.4.3 1 .5.5.1 1.1.2 1.1.2 5.5.6 11.2.3 10.3-.5-.3-.3-1.8-.7-4.3-.8-1.7-.1-3.1 0-3.7 0zM67.9 8.6c-.4.1-2.3.8-4.2 1.7-2.9 1.3-5.2 2.5-5.4 2.6 2.8-1.4 4.9-2.4 8.3-3.7.9-.4 1.2-.5 1.3-.6zM56.5 15.1c0-.1-.1-.1-.3-.2-.4-.2-1.1-.2-1.4 0-.4.3-.6 1.4.4 1.5.8.1 1.7-.7 1.3-1.3zM54.4 17.6c-1.7 1.1-2.2 4.4-.3 4.8 1.6.3 3.7-1.9 2.9-3.8-.4-.8-1.5-1.6-2.6-1zM44.2 105.2c-.9-3.4-4.1-7.9-8.7-5.7-6.5 4.3-3.9 16.3 2.1 17.3 4.7.8 8.2-5.4 6.6-11.6zM40.6 30.1l-.2.1c-3 1.9-6.4 9.3-4.6 9.7h.2c.1 0 .6 0 1.4-.8 1.7-1.7 2.7-4 3.1-5.3.7-1.7 1.2-4.1.1-3.7zM72.7 46c5.9 1.4 11.3-4.6 8.3-9.4-1.5-2.3-5.5-4.6-9.8-2.3-5.5 3.4-3.7 10.4 1.5 11.7zM116.5 13.7l-1.1-.6c-2.9-1.3-7.6-2-10.2-.8-.3.2-.5.4-.7.6l-.1.2c-.7 2.6 6.4 6.1 11.8 5 3-.6 3.1-2.7.3-4.4zM87 15.6c-1.5-.8-4.4-1.5-7.2-.9-.6.1-1 .3-1.4.5-.4.2-.6.4-.8.7-1.4 2.8 5.1 5.9 9.4 4.4 2.5-.7 3.1-3.1 0-4.7zM79 25.5l-.3-.4c-1.5-1.6-5.1-3.1-8.4-1.4-3.7 2.4-2.1 7.7 2.5 8.5 4.5.9 9-3 6.2-6.7zM104.4 7.1c-2.9-.6-7.2-.7-9.1.2-1.7 1.2 3 2.4 4.8 2.7 1.5.3 5.2.8 7.4-.2 1.7-1.1-.9-2.2-3.1-2.7zM90.9 13.8c-2.8 1.9 1.5 4.9 5.5 5.6 4.5.8 8-1.1 6.5-3.4-.3-.5-1-1.2-2.4-1.8-2.6-1.2-7.1-1.7-9.6-.4zM82.8 22.7c-3.9 2.6-1.1 7.6 3.7 8.6 3 .7 5.1-.4 5.8-.8 3.7-2.4 1.9-5.3.5-6.6-2-1.5-6.4-3-10-1.2zM70.3 9.5c-2.4.3-5.2 1.1-6 1.5h-.1v.1c1 .3 9.6-.7 9.1-1.5-.1-.2-1.1-.3-3-.1zM106.3 103.9c-2.3 1.9-2.3 1.9-4.3 8.2v.1c.1.1.2.3.5 1.8.6 2.4 1.3 3.5 2.6 5 1.2 1.3 3.5 2.6 5.2 2.9 6.9 1.1 10.6-3.5 11.7-6.4.9-2.4.8-5.2-.3-7.6 0-.1-5.4-10.5-15.4-4zM91.4 142.1c7 .8 12-6.3 9.1-12.8-1.9-4.4-8.2-8.4-14.5-4.4-7.1 5.7-2.5 16.3 5.4 17.2zM92.1 160.2c3.1.7 5.2-.3 6.2-.8 4.8-3.2 3.9-8 2.6-10.4-2.5-4.4-8.5-6.3-12.6-3.8-6.8 4-3.4 13.3 3.8 15zM65.9 15c.8.2 2.8.4 4.4-.4 1.4-.9.2-1.7-.9-2l-.4-.1c-1.9-.3-4.7 0-5.6.5-1.3 1 1.9 1.8 2.5 2zM46.4 85.8c-.8-3.8-4.1-8.1-8.7-5-6.1 5-4.3 15.7 1.3 16.6 4.3.6 8.7-5 7.4-11.6zM64.6 31.6c2-1.4 2.7-3.8 1.5-5.7-.8-1.3-2-1.8-2.5-1.9-1.9-.6-3.1-.1-3.9.3-.8.5-1.8 1.3-2.2 3.2-.7 4.7 3.8 6.5 7.1 4.1zM68.7 21.1c4 2 8-.4 7.3-2.6-.1-.3-.3-.6-.6-.9l-.2-.2c-.1-.1-.4-.3-.9-.6-1.5-.8-4.5-1.4-6.7-.3-2 1.3-1 3.5 1.1 4.6zM59.6 17.4c-2.1 1.4-1.3 4.4 1.3 5 2.8.6 5.4-1.8 4-3.8l-.4-.5c-1-.9-3.1-1.6-4.9-.7zM72 11.3c-1.5 1 2 2 3.1 2.2 4.1.8 7.5-.3 6.7-1.7-.3-.5-1.2-.9-2.4-1.1-2.2-.4-5.7-.2-7.4.6zM71.3 141.2c7.1 1.7 12.2-5.5 8.9-12.6-2.1-4.6-7.3-7.9-12.8-5.2-7.5 5-3.8 16 3.9 17.8zM88.4 121.6c7 2.6 16.5-4.1 12.4-13.7-1-2.3-1-2.3-7.1-6.1.2-.2.4-.4.7-.5 5.6-1.8 7.1-6.6 7.8-8.6 2.6 6.9 4.9 7.5 11.1 8.9h-.1c5-1.8 9.4-3.3 9.8-10.2-1.4-6.5-2.7-8-9.1-10.4 12.9-4.9 7.2-15.3 2.4-17.6-1.3-.6-2.7-1-4.2-1.4 2.8-1 11.2-3.9 6.4-11.6-3.8-6.1-14.8-6.6-16.8.9-.2.9-1.9 8.5 9.3 10.8-4.4.7-6.9 2.6-8.7 6.5-3.2-4-3.2-4-7.6-6.4 8.6-3.2 7.9-12.3.8-15.3-1.1-.4-1.2-.5-3.9-.9l-.4-.1h.1c-5.7 1.4-6 2.1-8.3 6.5-2.4-3.4-6.1-8.4-12.9-4.1-5 4-5.2 11.5 1.7 14.4-4.3 2.7-4.3 2.7-7.2 6.8-3.3-9.7-11.1-7-13.8-1.9-2.5 4.8-1 15.2 7.8 12.4 2.6-.8 3.8-2.6 5.6-5.7 2.2 4.4 2.2 4.4 5.9 7.2-3.1 1.6-5.5 2.8-7.2 8.8-1.3-5.8-1.7-7.7-7.7-9.5-11.5 2.9-8.6 15-4.7 17.8.1.1 8.7 5.5 12.3-7.4 1 6.2 1.9 7.4 7.2 10.2-11.6 4.2-8 15.9-2.4 19 7.1 3.9 14.9-2.9 12.8-11.2-1.1-4.4-3.8-5.9-7.3-7.9 4.5-1 6.6-3.5 8.2-7 2.6 4.8 2.6 4.8 7.7 7.6-13.3 6.4-5.9 17.7-.6 19.7zm8.8-41.4c2.4-1.5 3.9-3.2 5.1-6.3 2 4.1 4.3 6.1 8.5 7.1l-.4.1c-6.1 2-7.4 6.3-7.9 7.9-2.7-4.7-2.7-4.7-7.1-8 .7-.2 1.1-.4 1.8-.8zm-8.7 1.4c-4.2 1.8-5.8 4.5-6.7 6.7-1.3-3.5-3.2-5.3-7-6.9 1.1-.4 1.7-.6 2.6-1.1 2.3-1.4 3.7-3 4.8-5.7 2.6 4.1 2.6 4.1 6.6 6.9-.1.1-.2.1-.3.1zm-5.9-12c-1.4-3.8-3.3-5.6-7.1-6.7 1.1-.4 1.8-.7 2.7-1.2 2.5-1.5 3.8-3.1 4.7-5.7 1.2 3.3 3.1 5.1 7 6.4l-.3.1c-4.5 1.9-6 4.6-7 7.1zM73.7 159.8c6.5 1.4 10.6-4.9 7.3-11-1.9-3.5-6.9-7.1-12.3-4.5-6.4 4.4-2.2 14 5 15.5zM56.7 158.5c5.7 1 8.7-4.8 5.6-10.7-1.9-3.5-6.6-7.4-11.2-5.1-6.2 4.1-1.2 14.5 5.6 15.8zM52.8 119.5c6 1.3 10.7-5.8 8.4-12.6-1.2-3.6-5.3-8.2-11-5.4-7.4 4.8-4.5 16.6 2.6 18zM53.7 139.4c6 1.2 9.9-5.5 7-12.1-2.2-5.1-7.4-7.6-11.3-5.3-6.3 3.8-3.4 15.9 4.3 17.4zM130.9 80.4c7.5 1.4 12.6-5.8 8.9-12.4-2-3.6-7.6-7.4-13.5-4.4-7.4 4.9-3.3 15.3 4.6 16.8zM110 24.8c-.4-.7-1-1.3-1.7-1.8-2.3-1.7-7.2-3.2-10.9-1.4-4 2.6-.2 7.6 5.2 8.7 5.3 1.2 9.5-1.9 7.4-5.5zM85.4 33.8c-3 2.2-3 5.4-2 7.4 2.1 4.4 7.7 4.7 7.8 4.7 0 0 4.8-.6 6.5-3.6 1.8-3.1.1-5.7-.7-6.6-2.4-2.9-7.7-4.3-11.6-1.9zM119.2 32.3c-5.1 3.4-.7 10.5 5.9 11.8 6.5 1.3 10.6-3.2 7.2-8-.3-.4-.7-.9-1-1.2-2.2-2.2-7.5-4.9-12.1-2.6zM149.5 61.7c5.8.3 8.3-5.5 4.6-10.6-2.4-3.4-8.2-6.5-12.6-3.5-5.5 4.7.9 13.7 8 14.1zM136.3 50.2c-2.2-3-7.6-6.2-12.9-3.6-6.5 4.3-1.9 13.3 5.5 14.6 7.2 1.3 11.6-5.2 7.4-11zM106.7 44.7c6.4 1.2 11.1-3.7 8.2-8.4-.2-.4-.6-.9-.9-1.2-2.2-2.4-7.4-4.7-12.1-2.3-5.6 3.6-1.7 10.7 4.8 11.9zM165.2 205.5zM101.5 215.3c-.3-.4-1.5-.9-3.2-1.4-1.8-.5-5.4-1.2-6.8-.6-.9.7 2 2 5.8 2.5 2.6.3 4.6.1 4.2-.5zM88 215.3c-.4-.4-1.7-1-3.4-1.5-2-.7-5.4-1.5-6.3-1.1-.9.9 6.3 3.1 9 3.1.4 0 1.1-.1.7-.5zM61.8 195c-2.1-1.7-6.1-4-8.3-3-2.6 1.9 4.3 7.4 8.8 7.9 2.4.3 3-.9 1.5-3-.5-.5-1.2-1.3-2-1.9zM54.7 14.9l-.1.1c0-.1 0-.1.1-.1zM78.4 197.1c-.2-.2-.6-.5-.9-.8-2.4-1.9-7.1-4-9.5-2.3-2.6 2.6 4.4 7.5 9.3 7.4 3 0 3.5-1.9 1.1-4.3zM74.8 209.3c1.1-.2.8-1.1-.8-2.2-.3-.2-.9-.6-1.7-1.1-2.4-1.4-6.4-2.8-7.7-2-1.1 1.9 7.6 5.8 10.2 5.3zM102 206.4c-2.4-1.2-6.6-2.2-8.5-.9-1.8 1.8 3.7 4.4 8.1 4.5 2.2 0 3.8-.7 2.4-2.2-.4-.5-1.1-1-2-1.4zM72.4 212.4c-1.9-.8-4.9-1.8-5.5-1.7.3.7 8.1 3.7 9.1 3.5-.2-.4-3.3-1.7-3.6-1.8zM83.3 216.9c.7.3 6.9 1.6 7.7 1.6-.1-.1-.4-.1-3.4-.8-3.1-.6-4.1-.8-4.3-.8zM126.5 218.2c-3.6.4-3.9.5-4 .6.3.3 6.1-.5 6.6-.8 0 0-.1 0-2.6.2zM129.9 218.4h.1c1.8-.3 3-.6 3.1-.6l-1 .2c-1.2.2-1.9.4-2.2.4zM114.9 214.1c-.3-.4-1.4-.8-2.9-1.2-1.7-.4-5.3-1-6.9-.2-1 .7 1.1 1.6 3.7 2 3.2.6 6.8.3 6.1-.6zM137.6 215.7c-2.5.5-3.7.7-3.9.9.4.3 6.2-1.1 6.6-1.3-.1-.1-.2-.1-2.7.4zM114.7 218.3c0-.1-.1-.3-3.1-.6-1.7-.1-5.1-.3-5.6.1-.3 1 7.8 1 8.7.5-.1.1 0 .1 0 0zM114.9 219.9c-2.1.1-3.5.1-3.5.2.4.2 5.8-.1 6.2-.2-.1-.1-.2-.1-2.7 0zM127.1 216.5c-.1-.2-1.8-.3-2.8-.3-1.4 0-5 0-5.7.5-.4.7 5.6.7 8 .1.5-.2.5-.3.5-.3zM47.7 200.3c-1.9-1.3-4.8-3.3-5.3-3.3.2.9 8.3 6.1 8.8 6.1-.1-.4-2.2-1.9-3.5-2.8zM44.8 21.2c2-1.4 3.5-2.5 4.2-2.9-3.7 2.4-6.9 4.9-7.8 5.6 1.3-.8 2.4-1.8 3.6-2.7zM49 18.3zM28.1 36.2c.2-.2.5-.5.7-.8l-.7.8zM34.8 29.5zM54.4 15c-.1 0-.1.1-.1.1-.4.2-.9.5-1.5.9.4-.2.7-.4 1.1-.7 0 0 .1 0 .1-.1h-.1c.2 0 .3-.1.5-.2l-.5.3.5-.3.2-.1s-.1 0-.2.1l.2-.1h.1s.1 0 .1-.1h.1-.1c.6-.3 1-.4 1.8-.6.6-.1 1.4-.3 1.5-.5-.1-.1-.8.1-1.7.4-.5.2-.9.4-1.3.6l1.3-.7-.4.2c.1-.1.3-.2.5-.2 2-1 3.7-1.6 5.3-2.3 1-.4 1.3-.5 1.4-.6h-.1c-.5.1-1.7.5-3.3 1.2-.8.3-1.5.7-2.3 1.1l1.6-.8s-1.6.8-4 2.1c-.1 0-.2.1-.3.2l.3-.1-.2.1s-.1 0-.1.1h.1l-.2.1h-.1s-.1 0-.1.1c0-.3 0-.3-.1-.2zm.3-.2zm0 0zm0 0zM34.8 29.5c-.7.6-2 1.9-3.8 3.7l-2.1 2.2c1.9-2 5.7-5.7 5.9-5.9zM49 18.3zM49 18.3zM6.5 73.3c-1 .9-3.9 10.9-3.5 11.8.4 0 1.6-4 2.1-5.7.4-1.3 1.6-5.6 1.4-6.1zM58.9 204c-2.2-1.3-5.9-3.2-6.6-2.6-.4 1.4 8.1 6.3 9.9 5.7.6-.7-2.6-2.7-3.3-3.1zM8.9 76.4c.7.3 2.3-2.8 3.6-6.8.8-2.6 1.7-6.4.7-6-2.2 1.6-5.8 12.2-4.3 12.8zM25 40.3c1.2-1.5 2-2.5 2.8-3.4.7-.8.9-1 .9-1.2-1.1.9-6.6 7.6-7.1 8.6.2 0 .2 0 3.4-4zM142.1 215.3c-1.9.6-1.9.6-2 .6.2 0 2.8-.8 3.5-1l-1.5.4zM12.3 62.2c.7-1.5 2.2-4.9 2-5.3-.1 0-.1 0-.2.1-1.6 1.8-5.6 10.5-5.1 11.2.6 0 2.5-4.2 3.3-6zM17.6 52.3c.1 0 .3 0 2.3-2.9l.2-.3c.3-.4.6-1 1.3-2 3-4.7 2.9-4.9 2.9-5h-.1c-.6.4-3.4 4-5.7 7.8-.9 1.8-1 2.3-.9 2.4zM14.6 55c.8-1.3.9-1.5 2.5-4.2.4-.6.5-.9.5-.9s-.2.2-.7 1c-2.7 4.1-4.7 7.9-4.8 8.5l2.5-4.4zM94.1 218.1c.2.5 7.4 1.4 8.4 1.1v-.1c-.3-.2-2-.5-3.3-.6-.4-.1-4.4-.6-5.1-.4zM198.2 174.8c-.6.6-3.5 4.6-3.7 5.1.3-.2 1.2-1.3 2.1-2.5.8-1.1 1.6-2.4 1.6-2.6.1 0 0-.1 0 0zM209.1 150.8c-1.6 1.2-3.8 8.4-3.2 8.4.4 0 1.6-2.1 2.5-4.3 1-2.4 1.3-4.4.7-4.1zM207.5 148.2c.7-2.7.7-5.1-.4-4.5-2.4 1.7-4 9.9-2.6 10 .7.1 2.2-2.6 3-5.5zM211.1 105.6c-.2-3.1-1.2-4.7-1.6-5.2-.7-.9-1.4-1.2-2.1-.8-.7.5-1.2 1.4-1.5 2.9-1 5.5 1.4 11.7 3.7 9.8 1.1-.9 1.7-3.7 1.5-6.7zM200.8 167.3l-.1.1c-1.3 1.2-4.1 6.5-3.9 7 .3.1 1.8-2 2.7-3.5 1.1-2.1 1.8-3.8 1.3-3.6zM212.1 125.3c-2.4 1.8-2.9 10.9-1.4 11.1.1 0 .2 0 .3-.1 1.3-.9 2-4.2 2.3-5.9.5-3.6-.2-5.7-1.2-5.1zM203.6 168.4c-.2.2-2.4 3.6-2.4 3.7.1-.1.9-1.2 1.1-1.6.7-1.1 1.2-1.9 1.3-2.1zM201.4 137.7c-3.1 2.8-3.6 10.9-1.4 11.2.3 0 .5-.1.7-.2 1.7-1.2 2.8-4.5 3.1-6.4.4-3.3-.4-6-2.4-4.6zM207.9 159.2c-.5.5-3.2 5.8-3.3 6.3.3-.2 1.2-1.7 1.8-3 .8-1.3 1.5-2.9 1.5-3.3zM215.1 142.4c-.4.4-2.6 6.8-2.5 7.3.3-.2 1.2-2.6 1.5-3.4.5-1.6 1.1-3.6 1-3.9zM220 102.7c-.1-1.9-.4-4.9-.8-5.3-.5.7.1 9.5.7 10.1.4-.3.2-4.4.1-4.8zM218 125.4c.6-.5 1-3.4 1.1-4.8.2-2.5.2-5.2-.3-5.1-1.3 1.1-1.4 9.8-.8 9.9zM219.3 125.3c-.2.6-1.4 7.6-1.4 7.9.1-.1.1-.1.1-.3.5-2.4 1-4.9 1.3-7.4v-.2zM215.3 133.4l-.1.1c-1.4 1.6-2.8 9.2-2.1 9.3.4.1 1.3-2.1 2-4.6.6-2.8.7-5.1.2-4.8zM217.3 96c0-.4-.1-1.1-.2-2.2-.4-2.5-1.4-5.9-2.4-5.6-.9.8-.7 5.3.4 9.1.5-.3.9-.5 1.3-.7-.4.2-.8.5-1.3.7.9 2.8 1.6 3 2 2.3.3-.5.4-1.7.4-3.2-.2-.2-.2-.3-.2-.4zM214.9 106.7c-2.2 1.7-1.5 11.3 0 11.6.9.2 1.7-2.7 1.7-6.1 0-2.3-.4-6-1.7-5.5zM190.9 182s-.1 0-.2.1c-1 .8-4.2 5.1-4.2 5.4.3 0 1.8-1.7 2.7-2.9.8-1 1.7-2.3 1.7-2.6zM167.4 204.1c-1.3.8-1.7 1-1.9 1.2l.2-.1c1-.7 1.7-1.1 1.7-1.1zM165.3 205.4c.1-.1.2-.1.2-.1-.1 0-.2.1-.2.1zM170.3 202.2zM170.3 202.2zM150.4 212.4c.2 0 3.1-1.2 3.5-1.4l-1.5.6c-.6.2-1.3.5-2 .8zM161.6 207.4l-1.8.9c.3-.1 1.7-.8 3.2-1.6-.8.4-.9.4-1.4.7zM154.3 210.3c.2.1 4.1-1.5 5-1.9-.7.2-1.3.5-1.9.8-1 .4-2.1.6-3.1 1.1zM186.4 188.7c-.3.2-3.5 3.4-3.6 3.6.1-.1 1.3-1.2 1.9-1.7.9-.8 1.6-1.6 1.7-1.9zM190.2 185.6c.1-.1 1-1 1.1-1.2.6-.6 1.1-1.2 1.1-1.3-.1.2-2.1 2.4-2.2 2.5zM170.3 202.2s.6-.4 1.3-.9c.8-.5 1.4-1 1.5-1.1-.9.7-1.8 1.4-2.8 2zM148.4 212.5c-3 .8-3.6 1-3.8 1.1.4.2 5.6-1.4 6-1.7-.1 0-.1 0-2.2.6zM197.3 159.6c.8-3 .2-4.9-1.2-4.2-3 2-4.4 9.6-2.6 9.9 1.1.1 3-2.7 3.8-5.7zM179.4 194.6c-.5.4-4 3.6-4 3.6.2-.1 1.3-1 2.1-1.7 1.1-.9 1.9-1.7 1.9-1.9zM196.7 169.3c.6 0 2.2-2.2 3.2-4.7 1.1-2.6 1.1-4.2.4-4 0 0-.1 0-.2.1-2.1 1.5-4.4 8.6-3.4 8.6zM182.5 189.5c-1 .7-3.9 4.6-4 4.9.3-.2 1.6-1.4 2.6-2.6.8-1 1.6-2.1 1.5-2.4 0 0 0 .1-.1.1zM54.7 14.8zM54.8 14.8zM57.6 13.2l-.4.2c.8-.4 1.9-1 4.1-2.1l-3.7 1.9zM53.6 15.9c.1 0 .2-.1.4-.3l.6-.7c.1-.1.1-.1.2-.1h-.1c-1 .7-1.2 1.1-1.1 1.1zM54.7 14.8zM68 8.4c.1 0 9.8-3.3 10.1-3.4-.3 0-2.6.7-4.1 1.2-3.3 1.1-5.9 2.2-6 2.2zM54.7 14.8zM55.2 14.6c.5-.3 1.2-.7 2-1.1-.7.3-1.2.6-2 1.1zM53.1 15.8c.4-.2.7-.4.9-.5-.4.2-.7.4-.9.5zM47 20.2c2.8-2.2 2.8-2.2 3.5-2.6 1.4-1 2.6-1.7 3.5-2.3-4.2 2.5-7 4.8-7.4 5.2 0 0 .1-.1.4-.3zM51.9 16.6c.1 0 .1 0 .4-.2.6-.4 1.3-.9 2.2-1.4 0 0-.1 0-.1.1-1.8 1-2.5 1.5-2.5 1.5zM70.8 7.2c-.1 0-1.5.6-3.4 1.3-2.4 1-4.3 1.9-4.5 2 3-1.3 4-1.8 7.9-3.3zM54.7 14.8s.1-.1.2-.1l-.2.1zM54.7 14.8zM97.8.7h-.1.1zM54.8 14.8l.3-.2c-.1 0-.2.1-.3.2zM54.8 14.8zM84 3.2c-3 .7-5.3 1.4-5.5 1.5.1 0 9.7-2.3 9.8-2.4-.3 0-2.4.4-4.3.9zM82.5 4.3c.6.4 11.4-1.6 11.4-1.7-.3-.4-4.3.2-4.4.2-3.3.5-6.4 1.2-7 1.5zM51.3 16.9l1.5-.9c-3.4 2.1-5.4 3.5-5.5 3.6 1.3-.9 2.6-1.9 4-2.7zM54.4 15zM165.1 205.5s-.1 0-.1.1c0-.1.1-.1.1-.1zM164.5 205.8s.2-.1.5-.3c-.1 0-.2.1-.3.2-.1 0-.2.1-.2.1zM165.1 205.5s-.1.1-.2.1l.2-.1zM164.4 205.9l-2.2 1.1c.1 0 1.1-.5 2.7-1.4-.1.1-.3.2-.5.3zM165.6 205.2c-.1.1-.2.1-.4.2.2-.1.3-.1.4-.2zM167.8 203.6l-.4.3c-.6.4-1.1.8-1.8 1.2.3-.2.6-.3.8-.5.8-.4 1.3-.9 1.4-1zM165 205.4h.2s.1-.1.1-.3c.1-.3-.2-.3-.4-.2-.3.3-.2.5.1.5zM163.3 206.4l-1.2.4c-2.1.6-2.1.6-2.2.7.3.2 2.7-.7 3.4-1.1zM163.3 206.4zM172.9 199.8c-.3.2-3.7 3-3.7 3 .1-.1 1-.7 2-1.5s1.6-1.4 1.7-1.5zM168.8 201.5h-.1c-.7.5-1.6 2.1-1.5 2.3.1.1.8-.6 1.2-1.2.6-.8.6-1.1.4-1.1zM161 205.3c-.5.3-.2.6.3.7.5.1 1.4 0 1.8-.2.3-.2 0-.4-.2-.5-.5-.2-1.3-.3-1.9 0zM157.4 208.7c-.1 0-.2 0-1.7.2-2 .3-3 .6-3.4.8l-.1.1c.3.4 4.6-.7 5.2-1.1zM175 196.2h-.1c-.9.6-3.1 3.6-3 3.8.2 0 1.3-1.1 2.1-2 .8-1.1 1.2-1.8 1-1.8zM166.9 201.4c.1-.8-.3-1.4-1.2-.9-1.2.8-1 2.4-.2 2.6.7.1 1.3-.9 1.4-1.7zM158 206.7c-.1-.2-.5-.3-.9-.5-.7-.2-2.2-.4-3.3.2-.8.5.1.9.7 1 1.3.2 3.8-.2 3.5-.7zM142.7 212.5c1.6.2 6.2-.8 6.4-1.2-.1-.1-.2-.1-2.2.1-2.2.2-3.9.5-4.4.8-.1.1-.3.2.2.3zM173.3 193.5c-.1 0-.1 0-.3.2-1.6 1.3-2.4 4.3-1.7 4.4.5 0 1.7-1.5 2.2-2.6.7-1.5.4-2.2-.2-2zM160.2 203.3c1.7.2 2.4-1.2 1.9-2.2-.5-.9-1.8-1.4-3.1-.6-1.5 1.2-.3 2.6 1.2 2.8zM150.2 208.4c-.1-.2-.7-.4-1.4-.6-1.2-.3-3.4-.4-4.7.2-.9.6.3 1.1 1 1.2 2 .4 5.6-.1 5.1-.8zM182.3 185.3s-.1 0-.1.1c-1.7 1.1-4 5.9-3.2 6 .4 0 1.9-1.8 2.9-3.4 1-1.9 1-3 .4-2.7zM169.9 193.6c.1-1.5-.8-2.5-2.3-1.5-2.2 1.7-1.7 4.7-.2 4.8 1.2.2 2.4-1.7 2.5-3.3zM154.5 202.1c-.1-.2-.3-.4-.4-.5-.8-.7-2.7-1.4-4.5-.5-1.7 1.1-.6 2.6 1.5 3.1 2.5.5 4.3-.6 3.4-2.1zM139.9 210.3c-.2-.3-.9-.5-1.9-.7-1.4-.3-4.2-.6-5.8.2-1.1.7.3 1.2 1.3 1.4 2.8.6 7.1 0 6.4-.9zM176.3 188.8c.9.2 2.6-1.9 3.3-4.1.6-2.1.1-3.3-1.2-2.7-2.7 1.8-3.5 6.6-2.1 6.8zM161.5 196.5c2-1.3 1.5-3.5 1.5-3.6-.3-1.2-1.6-2.7-4-1.5-2.7 1.7-2 4.8.5 5.4 1 .3 1.7-.1 2-.3zM144.5 203.5c-.3-.5-.7-.8-.9-.9-1.1-.8-3.8-1.6-6-.5-1.9 1.3-.5 2.8 2 3.3 2.9.7 6-.1 4.9-1.9zM170.8 180.1c-3.3 2.1-3 6.8-.8 7.4.6.2 1.1-.1 1.4-.2 1.7-1.1 2.4-3.4 2.5-4.7.2-2.1-1-3.6-3.1-2.5zM147.1 191.7c-3 2-1.6 5.1 1.6 5.8 3.5.7 5.6-2.1 4.2-4.5-.9-1.6-3.4-2.6-5.8-1.3zM132 206.8c1.9-1.2-.7-2.7-1-2.8-1.5-.8-4.8-1.7-7.2-.5-2 1.3 0 3.1 3 3.7.5 0 3.3.5 5.2-.4zM181.7 176.8c1.5.3 3.5-2.8 4-5.5.5-2.5-.2-4.4-2.2-3.4-3.4 2.2-3.7 8.5-1.8 8.9zM165.2 181.3c-.3-1.9-2.1-3.9-5.2-2.4-3.7 2.4-2.9 7.3.4 8 3 .6 5.3-2.7 4.8-5.6zM135.5 198.6c4 .8 6.8-1.4 5.2-4.2-.1-.2-.3-.5-.5-.6-1.2-1.3-4.1-2.8-7.3-1.2-3.1 2-1.1 5.2 2.6 6zM113.2 208.6c3.4.6 6.7-.1 5.6-1.8-.2-.3-.7-.9-2-1.6-1.8-.9-5.5-1.8-7.9-.6-2.1 1.4.7 3.3 4.3 4zM178.5 168.3c0-2.6-1.4-4.6-4.1-3.3-4.5 2.9-3.6 9.4-.6 9.8 2.5.4 4.7-3.3 4.7-6.5zM153.3 181c-.9-2.2-4-4-7.6-1.7-4.1 3.2-1.5 7.8 2.3 8.2 4 .5 6.6-3.4 5.3-6.5zM126.3 195.1l-.3-.3c-1.8-1.8-6-3.2-9-1.2-2.9 2.5.5 5.9 5.1 6.3 4.6.4 6.3-2.3 4.2-4.8zM188.4 151.2c-3.8 3.1-3.5 10.4-1.1 10.7 1.9.3 4.1-3.4 4.5-6.7.4-3.2-.9-5.6-3.4-4zM162.1 174.1c3.8.9 6.7-3.5 6-7.4-.5-2.8-2.8-4.8-6.2-3-4.7 3-3.9 9.4.2 10.4zM133.3 188.4c4.8.5 7.4-3.5 5.6-6.8-1.3-2.4-5.3-4.4-9.3-1.8-4.3 3.3-.8 8 3.7 8.6zM107.4 201.1c2 .1 2.9-.4 3.4-.6 2.8-1.9-.6-4.7-.7-4.8-2.1-1.7-6.6-3.2-9.5-1.2-3.1 2.6 1.6 6.3 6.8 6.6zM183.1 152c-.1-2.7-1.8-5.7-5.2-4-4.9 3.2-4.3 11.3-.3 11.9 2.8.4 5.6-3.6 5.5-7.9zM154.9 165.9c-.8-2.3-3.7-5.2-8.3-2.9-5.3 3.4-4.1 9.8.9 11 4.9 1.4 8.7-3.8 7.4-8.1zM116.3 189.3c5.3 1.1 9-2.6 6.6-6.5-.1-.1-.2-.3-.3-.5-1.6-2.1-5.8-4.2-9.8-2.2-4.6 3-1.8 8.1 3.5 9.2zM193 145.3c2.3-.6 3.9-4.6 3.9-7.9 0-3.2-1.4-5.9-4-4.6l-.7.5-.3.3c-3.5 4.2-2.4 12 .8 11.7h.3zM171.4 149.8c-.5-2.9-3.1-6.1-7.4-3.9-5.6 3.7-4.2 11.9.8 12.7 1.4.2 2.4-.3 3.1-.6 4.3-2.8 3.6-7.9 3.5-8.2zM138.7 166.2c-1.5-3-5.5-5-10-2.6-5.7 3.7-3.4 10.5 2.4 11.6 5.9 1 9.7-4.6 7.6-9zM105.3 182.8c-2.1-2.5-7.2-4.6-11-2.1-4 3.4.6 8.9 6.4 9.4 5.4.5 7.9-3.5 4.6-7.3zM181.4 142.7c3.2.6 6.2-4.1 5.7-9-.4-3.5-2.7-6.3-6.1-4.6-5.5 3.6-4.3 12.8.4 13.6zM156.8 148.8c-1.1-3.5-4.7-6-9.4-3.7-6.3 4.1-4.5 12.4 1.4 13.5 2.1.4 3.7-.4 4.5-.8 5.1-3.3 3.7-8.5 3.5-9zM113.4 175.8c6.2 1.1 10.5-4.2 7.5-9.3-1.6-2.7-6.1-5.3-11-2.8-6 3.9-2.9 10.9 3.5 12.1zM84.3 190.4c5 .4 6.8-3.4 3.4-7.2-2.3-2.6-7.4-5-11-2.6-3.8 3.4 1.7 9.3 7.6 9.8zM174.3 131.5c-.6-3.1-3.4-7.1-8.3-4.7-6.2 4-4.5 13.4 1.2 14.5 1.7.3 2.8-.3 3.5-.6 3.8-2.5 4-7 3.6-9.2zM100.7 175.7c3.9-2.6 2.8-6.6 1.5-8.5-1.2-1.8-2.7-2.7-3.4-3-3-1.5-6-1.4-8.5.2-2.1 1.5-2.8 3.5-2.2 6 1.5 5 7.9 7.7 12.6 5.3zM134.1 143.8c-2-.3-3.8.1-5.6 1.1-1.8 1.1-3 2.4-3.7 4.3-2.3 7.5 5.5 12.2 11.5 8.9 4.7-3 4.4-7.7 3.6-9.8-1-2.3-2.9-3.9-5.8-4.5zM159.1 130.3l-.2-.7c0-.1-.1-.3-.2-.5-1.4-3.3-5.6-6.4-10.9-3.1-4.9 3.9-3.9 9-2.4 11.4 4.3 6.6 12.5 3.6 13.8-3.2.3-1.9 0-3.3-.1-3.9zM189.6 119.1c.1-.6.5-2.5.1-4.8-.2-1.1-.5-1.8-.7-2.1-.5-1-1-1.7-1.7-2.3-2.4-1.8-4.2-.7-4.9-.2-2.1 1.7-3.1 4.5-2.8 7.9.8 6 5.6 8.7 8.5 4.8 1.1-1.4 1.5-3.3 1.5-3.3zM45.2 195c3.7 2.5 5.8 2.7 5.5 1.3-.1-.7-.8-1.7-1.9-2.9l-.4-.4c-.1-.1-.5-.4-.9-.8-2.1-1.8-5.9-4.3-7.1-3.3-.6 1.2 2 4.1 4.8 6.1zM218.5 89.8c-.6-3.2-1.4-6.4-2.3-9.6v.1c.5 2 2 8.6 2.3 9.5zM54 187.8c2.9-.2 2.8-3.4-.1-6.8-2.2-2.6-6.8-5.6-9.3-3.8-3.1 3.5 4.6 10.9 9.4 10.6zM30 183.9c-1.1 1.2 7.5 8.6 8.6 8.6.7 0-.5-1.9-2.8-4.2-1.8-1.8-4.9-4.6-5.8-4.4zM209.5 93.5c.3.1.6 0 .7-.1 2-1.5.8-6.6.6-7.1-.8-3.4-2.7-6.5-4.4-5.8-2.7 2.1.5 12.4 3.1 13zM191 95c-1-3.4-4.1-7.4-7.9-5.5-1 .7-1.5 1.3-2.1 2.6l-.2.4c-1.5 4.9.9 10.9 5 12.2 4.5 1 6.7-4.6 5.2-9.7zM214.9 81.5h.1c.6-.6-.3-3.8-.9-5.5-.9-2.9-2.4-6-3-5.8-1.2 1.2 3 11.3 3.8 11.3zM39 178.1c-1.9-2.5-5.6-5.5-7.6-4.7-2.9 2.2 4.6 10.6 8.4 11 2.5.2 1.7-3.2-.8-6.3zM195.2 74.5c-4.1 2.9-.2 13.3 4 14.2 2.8.6 4.1-3.8 2.5-8.5-1-3.1-3.7-6.9-6.5-5.7zM46.4 173.1c3.8.2 4.7-4.1 1.8-8.6-2.5-3.8-6.9-6.7-9.8-4.6-3.9 3.8 2.6 12.9 8 13.2zM20.6 168.2c-1.9 1.7 5.3 10.8 7.7 11.1 1.4.2.6-2.5-1.7-5.8-1.6-2.3-4.6-5.8-6-5.3zM207.9 74.9c1.4.1 1.3-3.1-.3-6.8-1.1-2.6-3.4-6.4-5-5.8-2.4 2 2.9 12.4 5.3 12.6zM180.8 69.6c-5 3.5-.6 14.1 4.8 15.2 1.3.3 2.1-.1 2.6-.4 3.1-2.1 2.2-6.7 1.3-9.1-1.3-3.2-5-7.3-8.7-5.7zM209.9 64c.2-.4-1.9-4.5-2.2-5-1.2-2.3-3.1-5.6-3.5-5.6-.3.7 5 10.6 5.7 10.6zM32 169c3.1.6 3.5-3.4.9-8-1.7-3-5.3-6.7-7.8-5.6-3.7 2.8 2.4 12.8 6.9 13.6zM12.5 160.8c-.4 1 5.7 11.2 6.7 11.1.3-.5-2-4.5-2.5-5.3-1.9-3.3-3.9-6-4.2-5.8zM190.5 56c-3.1 3.5 3.6 13.6 7.2 13.3 2.2-.2 2.3-3.8.3-7.8-1.7-3.2-5.2-7.1-7.5-5.5zM40.7 155.6c1.1.2 3.1.2 4.4-2 1.5-3.1.2-6.5-.6-8.3-.6-1.3-3.1-5.6-7.3-6-.9 0-1.4.1-2.1.5-5.5 3.7-.4 14.7 5.6 15.8zM20.7 163.5c.2 0 .4-.1.5-.1 1.7-1.4-.7-6.6-1-7.2-1.6-3.4-4.2-6.7-5.9-6.1-1.4 1.2 0 5.3 1 7.3 1.5 3.4 3.9 6 5.4 6.1zM195.3 45.3c-.9.8 1.2 4.6 2 5.9 2.6 4.1 4.6 5.5 5.2 5.4 1-.1.2-2.7-1.8-5.9-1.5-2.4-4.2-5.8-5.4-5.4zM176.4 51.5c-4.5 3.3 2 13.4 7.3 13.9.9.1 1.4-.1 1.9-.4 2.7-2 1.1-6.4-.1-8.5-1.8-3-5.8-6.5-9.1-5zM199.7 46.1c-1.5-2.1-3-4.1-4.6-6l.1.2c1.5 1.8 3.2 4 4.5 5.8zM26.9 151.4c3.3.7 4.6-4 2.5-9.2-1.2-3.1-4.3-7.5-7.5-6.1-4.5 3.1.1 14.3 5 15.3zM6.5 143.3c-1.2 2.6 4.3 13.1 5.2 12.6.6-.3 0-3.2-1.2-6.4-1.1-3.1-3.2-7-4-6.2zM192.7 51.1c1.4-1.1-.2-4.6-1.7-6.6-2.1-2.8-5.8-6-7.5-4.7-2.1 2.8 5.6 11.6 8.7 11.5.1 0 .4-.1.5-.2zM35.3 135.2c6.1 4.3 10-2 8.7-8.2-.1-.5-.3-1.2-.5-1.7-1.3-3.6-5-7.8-9.2-5.7-1.9 1.3-2.7 2.8-3.1 5.7v.3c-.1 3.8 1.4 7.5 4.1 9.6zM159.8 48.6c-1.7 1.2-2.2 2.5-2 5.1v.3c.7 3.2 2.9 6.1 6 7.8 6.9 3.3 9.7-1.6 7.8-6.5-.2-.6-.7-1.5-1.1-2.1-2-3.1-6.7-6.5-10.7-4.6zM193.9 40.5c.7 0-.7-2.1-3-4.7-2.1-2.3-4.8-4.7-5.4-4.6-.9 1.3 7.5 9.4 8.4 9.3zM15.6 145.5c2.2.4 2.8-3.7 1.4-8.4-.9-3.1-3.3-7.2-5.4-6.3-3.5 2.7.7 14.1 4 14.7zM169.5 35.6c-3.5 2.5 3.1 10.7 8.1 11.7 1.2.2 1.9-.1 2.3-.2 2.3-1.7.2-5.3-1.4-7.1-2.1-2.6-6.3-5.6-9-4.4zM24.7 132.3c3.5.5 5.5-4.6 4-10.1-.9-3.2-3.5-7.7-7-6.1-5.4 3.6-2 15.5 3 16.2zM7.3 138.4c1-.1 1.2-3.3.4-7.2-.6-3-2.1-7.1-3.4-6.6-2 1.7.6 14 3 13.8zM174 25.9c-1.3 1.1 2.7 5 2.8 5 2.9 2.8 5.7 4.3 6.8 4.3 1.6 0 .6-2.4-2.2-5.2-2.5-2.3-6-4.6-7.4-4.1zM164.2 37.1c-2.3-2.5-7.1-5.3-10.6-3.7-4.2 3 1.9 10.7 8 11.7 4.6.8 6.5-2.7 3.6-6.9-.3-.3-.6-.8-1-1.1zM182.1 27c0-.1-.1-.2-.7-.7-2.4-2.1-4.9-4-7.5-5.8-.6-.4-.8-.5-.9-.5.2.5 8.4 6.8 9.1 7zM13.9 127c2.3.3 3.7-4 2.8-9-.5-3.1-2.3-7.5-4.8-6.4-4.2 3-1.6 15 2 15.4zM.4 116.8c-.8 1.8.6 12.7 1.6 12.7.6-.6 0-5.5-.1-6.1-.3-2.8-1-6.7-1.5-6.6zM160.4 22.7c-2.6 1.9 4.8 8.5 9.4 9.3 2.7.4 3.4-1.1 1.7-3.6-.5-.7-1.3-1.6-2.2-2.3-2.7-2.3-6.9-4.3-8.9-3.4zM136.8 32.2c-.1.1-.2.1-.3.1-4.8 3.3.6 10.6 7.2 11.8 1.4.3 3.4.3 5.1-.8 3.1-2.5 1-6.2-.7-7.9-2.7-2.7-7.5-4.7-11.3-3.2zM5.3 105.6c-3 2.3-1.5 14.2.8 14.4 1.3.2 2.2-3.5 2-7.9-.2-3-1.2-7.1-2.8-6.5zM172.6 22.3c.7 0 .6-.4-.2-1.3-.7-.7-1.9-1.7-3.2-2.6-2.2-1.5-5.9-3.5-6.9-3.2-1.3 1.2 8.4 7 10.3 7.1zM155.3 23.6c-2.3-1.8-7.1-4.1-10-2.7-3.3 2.3 3.6 8.4 9.1 9.1 3.9.6 5.2-1.6 2.9-4.6-.6-.6-1.2-1.2-2-1.8zM14.9 92.3c-4.7 3.2-3.7 15.2 0 15.6 2.3.3 4.3-4.2 4-9.3-.1-3.2-1.3-7.5-4-6.3zM1.9 98.6c-1.4 1.2-1.8 13-.5 13.2.6.1 1.2-2.7 1.3-6.5.1-2.7-.1-6.8-.8-6.7zM149.2 12.5c-1.8 1.5 6.8 6.5 10.7 6.8 1.6.1 2-.6 1-1.7-.6-.8-1.9-1.8-3.4-2.6-3.3-2-7.2-3.1-8.3-2.5zM140.3 22.6c-2.5-1.9-7.6-3.7-10.9-2.2-3.8 2.6 2.1 7.8 7.5 8.9 4.8 1 7.7-1.2 5.7-4.4-.6-.8-1.4-1.6-2.3-2.3zM159.1 12.2c0-.5-4-2.3-4.5-2.5-3-1.3-6.1-2.4-6.4-2.2.2.8 10.2 4.8 10.9 4.7zM11 93.6c.2-3-.2-7.1-1.9-6.4-3.4 2.5-3.5 14.4-1.2 14.5 1.3.1 2.8-3.7 3.1-8.1zM120.5 20.7c-2.4-.7-5.7-1.2-8.1.4-3.6 3.2 2.7 8.6 8.7 8.8 5.8.2 6.7-3.9 4.6-5.9-.2-.3-.8-1-2-1.8-1.4-.9-2.7-1.4-3.2-1.5zM144.6 13.3c-3-1.6-7.5-2.7-9.5-1.8-2.2 1.6 4.4 5.6 9.4 6.4 3.2.5 4.7-.5 3.3-2.3-.4-.4-1.3-1.3-3.2-2.3zM18.1 89.2c2.6.2 4.5-5.2 4.6-7 .1-.4.2-1.4.3-2.7 0-1.5-.2-2.4-.2-2.8-.6-2.4-1.6-3.2-3-2.5-4.9 3.2-5.2 14.7-1.7 15zM3.9 93.9h.1c1.3-1 2.2-5.9 2.3-6.9.6-3.4.8-6.8-.1-6.3l-.1.1c-2.3 2.6-3.5 13.2-2.2 13.1zM136.1 5.4c-1 .9 7.9 4.2 11 4.4.6 0 .8 0 1-.1.7-.6-2.1-1.9-4.1-2.7-2.9-1-6.8-2-7.9-1.6z"/>
</svg>
